<?xml version="1.0" encoding="UTF-8" standalone="no"?>
<svg
   width="29"
   height="29"
   viewBox="0 0 29 29"
   fill="none"
   version="1.1"
   id="svg2857"
   sodipodi:docname="internet-icon_blue.svg"
   inkscape:version="1.1.2 (0a00cf5339, 2022-02-04)"
   xmlns:inkscape="http://www.inkscape.org/namespaces/inkscape"
   xmlns:sodipodi="http://sodipodi.sourceforge.net/DTD/sodipodi-0.dtd"
   xmlns="http://www.w3.org/2000/svg"
   xmlns:svg="http://www.w3.org/2000/svg">
  <sodipodi:namedview
     id="namedview2859"
     pagecolor="#ffffff"
     bordercolor="#666666"
     borderopacity="1.0"
     inkscape:pageshadow="2"
     inkscape:pageopacity="0.0"
     inkscape:pagecheckerboard="0"
     showgrid="false"
     inkscape:zoom="30"
     inkscape:cx="14.5"
     inkscape:cy="14.516667"
     inkscape:window-width="1850"
     inkscape:window-height="1016"
     inkscape:window-x="70"
     inkscape:window-y="27"
     inkscape:window-maximized="1"
     inkscape:current-layer="g2850" />
  <g
     clip-path="url(#clip0)"
     id="g2850">
    <path
       d="M 0,14.3 C 0,12.4 0.4,10.5 1.1,8.8 1.8,7.1 2.9,5.5 4.1,4.3 5.3,3.1 6.9,2 8.7,1.3 10.5,0.6 12.3,0 14.3,0 c 1.9,0 3.8,0.4 5.6,1.1 1.8,0.7 3.3,1.8 4.6,3 1.3,1.2 2.3,2.8 3,4.5 0.7,1.7 1.1,3.6 1.1,5.5 0,1.9 -0.4,3.8 -1.1,5.6 -0.8,1.8 -1.8,3.3 -3,4.6 -1.3,1.3 -2.8,2.3 -4.6,3 -1.8,0.8 -3.6,1.1 -5.6,1.1 -2,0 -3.8,-0.4 -5.5,-1.1 C 7,26.5 5.5,25.5 4.2,24.3 2.9,23.1 1.9,21.5 1.2,19.7 0.4,18.1 0,16.2 0,14.3 Z m 1.7,0 c 0,1.3 0.2,2.6 0.6,3.9 H 6.4 C 6.2,16.9 6.1,15.6 6.1,14.3 6.1,13 6.2,11.7 6.4,10.4 h -4 c -0.5,1.2 -0.7,2.5 -0.7,3.9 z m 1.4,5.6 c 0.7,1.4 1.6,2.5 2.7,3.6 1.1,1.1 2.4,1.8 3.8,2.4 -1.2,-1.6 -2.1,-3.6 -2.7,-6 -0.1,0 -3.8,0 -3.8,0 z M 3.1,8.6 H 6.8 C 7.4,6.2 8.3,4.2 9.5,2.6 8.1,3.2 6.9,4 5.8,5.1 4.7,6.2 3.8,7.3 3.1,8.6 Z m 4.8,5.7 c 0,1.2 0.1,2.5 0.3,3.9 h 5.2 V 10.4 H 8.3 C 8,11.6 7.9,13 7.9,14.3 Z m 0.7,5.6 c 0.5,1.8 1.1,3.3 2,4.5 0.9,1.2 1.8,2 2.8,2.3 v -6.8 c 0,0 -4.8,0 -4.8,0 z m 0,-11.3 h 4.8 V 1.9 c -1,0.3 -1.9,1 -2.8,2.2 -0.9,1.2 -1.5,2.7 -2,4.5 z m 6.6,18.1 c 1,-0.3 2,-1 2.8,-2.3 0.8,-1.3 1.5,-2.7 2,-4.5 h -4.8 z m 0,-8.5 h 5.2 c 0.2,-1.4 0.3,-2.7 0.3,-3.9 0,-1.3 -0.1,-2.6 -0.3,-3.9 h -5.2 z m 0,-9.6 H 20 C 19.5,6.8 18.9,5.3 18,4.1 17.1,2.9 16.2,2.1 15.2,1.9 Z M 19,25.9 c 1.4,-0.6 2.7,-1.4 3.8,-2.4 1.1,-1 2,-2.2 2.7,-3.6 h -3.7 c -0.6,2.4 -1.5,4.5 -2.8,6 z M 19,2.7 c 1.2,1.6 2.1,3.5 2.7,6 h 3.7 C 24.7,7.4 23.8,6.2 22.7,5.2 21.6,4.2 20.4,3.2 19,2.7 Z m 3.1,15.5 h 4.1 c 0.4,-1.3 0.6,-2.6 0.6,-3.9 0,-1.4 -0.2,-2.7 -0.6,-3.9 h -4.1 c 0.2,1.3 0.3,2.6 0.3,3.9 0,1.2 -0.1,2.6 -0.3,3.9 z"
       fill="#000000"
       id="path2848"
       style="fill:#36478f;fill-opacity:1" />
  </g>
  <defs
     id="defs2855">
    <clipPath
       id="clip0">
      <rect
         width="28.6"
         height="28.6"
         fill="white"
         id="rect2852" />
    </clipPath>
  </defs>
</svg>
